@startuml  
[*] --> メニュー画面
メニュー画面 --> 予約と確認画面 :予約と確認ボタンを押す
メニュー画面 --> 今の順番画面 :今の順番ボタンを押す
予約と確認画面 --> あなたの順番画面 :名前と電話番号を入力して、登録ボタンを押す
予約と確認画面 --> あなたの順番画面 :名前か電話番号を入力して、確認ボタンを押す
予約と確認画面 --> メニュー画面 :名前か電話番号を入力して、取消ボタンを押す
今の順番画面 --> メニュー画面 :メニューボタンを押す
あなたの順番画面 --> メニュー画面 :メニューボタンを押す
メニュー画面 --> [*]
@enduml